<?xml version="1.0" standalone="no"?>
<!DOCTYPE svg PUBLIC "-//W3C//DTD SVG 20010904//EN"
 "http://www.w3.org/TR/2001/REC-SVG-20010904/DTD/svg10.dtd">
<svg version="1.0" xmlns="http://www.w3.org/2000/svg"
 width="1536.000000pt" height="1024.000000pt" viewBox="0 0 1536.000000 1024.000000"
 preserveAspectRatio="xMidYMid meet">

<g transform="translate(0.000000,1024.000000) scale(0.100000,-0.100000)"
fill="#000000" stroke="none">
<path d="M9490 7306 c-280 -32 -512 -90 -935 -231 -600 -201 -1640 -501 -2500
-720 -838 -215 -1003 -257 -1330 -339 -187 -48 -493 -124 -680 -170 -350 -87
-431 -112 -162 -51 83 18 316 68 517 109 511 105 780 162 1295 275 225 49 836
191 972 225 136 35 138 34 108 -9 -15 -22 -26 -58 -30 -93 -9 -76 -23 -143
-24 -114 -1 17 -6 22 -18 18 -10 -3 -60 -14 -112 -26 -52 -11 -95 -21 -96 -22
-2 -2 -7 -50 -12 -108 l-10 -105 -2 170 c-1 155 -2 168 -17 153 -13 -13 -18
-54 -25 -214 -4 -110 -8 -200 -9 -200 0 -1 -12 1 -26 4 l-27 5 6 134 6 134
-37 -7 c-20 -3 -143 -28 -272 -55 -129 -26 -345 -69 -480 -94 -135 -25 -346
-66 -470 -90 -124 -24 -246 -47 -272 -50 -26 -4 -46 -12 -45 -18 1 -5 -9 -14
-23 -18 l-25 -7 27 -1 c14 -1 104 8 199 19 203 24 259 22 109 -3 -167 -29
-566 -93 -805 -129 -121 -18 -205 -34 -187 -36 44 -4 41 -22 -5 -23 -21 -1
-31 -3 -22 -6 16 -4 94 4 669 66 352 39 704 71 749 70 l36 -1 -40 -8 c-22 -5
-159 -25 -305 -45 -146 -20 -267 -39 -270 -42 -5 -5 0 -5 380 32 1184 114
1102 105 1116 133 11 22 12 21 17 -14 4 -21 3 -102 0 -180 -5 -119 -9 -144
-22 -148 -9 -3 -115 -10 -236 -16 -224 -11 -745 -42 -1045 -61 -306 -20 -376
-26 -322 -28 l53 -1 -25 -23 c-14 -13 -23 -27 -19 -30 3 -4 -34 -7 -83 -8
-623 -4 -1111 -17 -1424 -38 -107 -7 -70 -8 1615 -31 756 -11 1111 -19 2055
-45 2441 -69 3037 -91 3275 -120 171 -20 330 -34 560 -46 257 -14 1795 -24
1795 -12 0 15 -410 75 -612 90 -49 3 -88 9 -88 13 0 4 19 10 42 14 33 5 52 17
84 51 22 25 67 58 100 75 86 46 141 95 164 147 26 60 25 65 -5 21 -56 -83
-224 -112 -600 -104 -348 7 -786 32 -914 52 -120 18 -295 68 -541 153 -431
151 -577 166 -1150 122 -428 -33 -729 -54 -995 -71 -93 -5 -280 -17 -415 -25
-386 -23 -798 -45 -862 -45 l-58 0 1 88 c1 48 4 121 8 162 l6 74 165 18 c2138
225 2438 250 2743 230 320 -21 507 -67 1146 -277 596 -196 783 -245 996 -264
161 -14 340 5 385 42 30 23 50 61 49 92 l-1 30 -10 -30 c-15 -41 -26 -53 -72
-78 -37 -20 -56 -22 -196 -22 -250 1 -444 52 -883 234 -495 205 -800 364
-1292 675 -201 127 -342 199 -465 237 -67 21 -93 24 -235 23 -182 -2 -160 2
-765 -153 -422 -108 -912 -225 -1324 -317 -110 -24 -203 -47 -207 -51 -4 -5
-9 -35 -11 -68 -2 -49 -5 -38 -12 58 -8 117 -8 117 20 175 l29 57 245 62 c553
141 1032 278 1434 409 479 157 728 193 1008 145 248 -43 444 -134 803 -374
162 -109 350 -223 340 -207 -3 6 3 10 14 10 11 0 27 8 37 18 15 14 35 17 118
16 91 -1 120 -6 280 -53 98 -29 204 -57 235 -62 74 -14 171 -65 171 -91 0 -11
4 -17 9 -14 14 9 46 -27 49 -57 2 -15 -2 -35 -10 -44 -9 -12 -9 -15 -1 -9 9 5
11 2 7 -8 -3 -9 -14 -16 -23 -16 -14 0 -14 -2 -1 -10 9 -6 10 -10 3 -10 -7 0
-32 14 -57 31 -32 21 -52 28 -66 24 -17 -5 -19 -10 -10 -20 25 -30 -18 -46
-63 -25 -22 10 -22 10 1 -6 12 -9 22 -24 22 -33 0 -9 6 -23 13 -31 17 -18 -18
5 -64 43 -50 42 -186 130 -246 161 -56 28 -88 36 -38 9 40 -22 167 -115 184
-137 20 -24 20 -76 1 -76 -13 0 -13 -1 0 -10 22 -14 0 -13 -105 5 -109 19
-264 80 -370 144 -93 57 -229 173 -213 182 7 4 5 9 -3 13 -15 7 102 1 161 -8
19 -3 10 1 -20 9 -61 17 -237 55 -252 55 -18 0 69 -94 145 -155 142 -114 350
-214 562 -270 80 -21 113 -25 168 -21 62 6 72 4 129 -25 107 -54 234 -82 383
-83 121 -1 133 1 169 23 82 51 98 167 37 270 -156 263 -529 601 -866 785 -249
135 -565 240 -880 293 -126 21 -621 26 -775 9z m660 -126 c-14 -4 -44 -13 -68
-19 -50 -14 -62 -34 -36 -62 20 -22 377 -266 490 -334 39 -24 96 -51 125 -59
101 -29 742 -127 823 -126 20 0 19 2 -4 20 -14 11 -29 20 -34 20 -16 0 -76 44
-76 55 0 12 -115 99 -270 203 -126 84 -327 196 -393 218 -70 23 -52 27 39 9
243 -50 502 -181 719 -365 44 -37 95 -86 113 -109 18 -23 38 -41 43 -41 34 0
284 -272 352 -382 42 -69 50 -138 21 -174 -8 -10 -13 -14 -10 -7 11 20 -12 24
-45 8 -36 -19 -40 -17 -63 48 -10 26 -26 52 -36 57 -10 6 -37 47 -59 93 -40
80 -91 144 -144 180 -18 12 -27 27 -27 46 0 15 -6 36 -14 46 -12 17 -12 21 5
33 10 7 19 21 19 30 -1 15 -2 15 -11 -2 -10 -16 -20 -17 -88 -12 -215 19 -802
102 -879 125 -50 15 -176 90 -389 232 -213 143 -263 182 -263 210 0 26 41 50
102 59 70 10 88 10 58 0z m-3433 -1117 c-3 -10 -5 -2 -5 17 0 19 2 27 5 18 2
-10 2 -26 0 -35z m5 -395 c-2 -90 -6 -164 -7 -166 -4 -5 -240 -20 -247 -15 -5
2 -8 73 -8 158 l0 154 43 6 c23 3 78 10 122 14 44 5 85 9 91 10 8 1 10 -45 6
-161z m-2552 -27 c0 -5 -9 -7 -20 -4 -11 3 -20 7 -20 9 0 2 9 4 20 4 11 0 20
-4 20 -9z"/>
<path d="M4540 5776 c-41 -5 -68 -11 -60 -13 25 -5 177 12 155 18 -11 2 -54 0
-95 -5z"/>
<path d="M4698 5783 c7 -3 16 -2 19 1 4 3 -2 6 -13 5 -11 0 -14 -3 -6 -6z"/>
<path d="M3678 5753 c7 -3 16 -2 19 1 4 3 -2 6 -13 5 -11 0 -14 -3 -6 -6z"/>
<path d="M4828 5643 c6 -2 18 -2 25 0 6 3 1 5 -13 5 -14 0 -19 -2 -12 -5z"/>
<path d="M4023 5633 c9 -2 23 -2 30 0 6 3 -1 5 -18 5 -16 0 -22 -2 -12 -5z"/>
<path d="M4018 5603 c7 -3 16 -2 19 1 4 3 -2 6 -13 5 -11 0 -14 -3 -6 -6z"/>
<path d="M3918 5593 c7 -3 16 -2 19 1 4 3 -2 6 -13 5 -11 0 -14 -3 -6 -6z"/>
<path d="M12239 5484 c-15 -7 -48 -18 -74 -24 -26 -6 -53 -17 -61 -25 -30 -29
-93 -35 -385 -35 -162 1 -306 -2 -321 -5 -15 -3 -30 -1 -33 5 -3 5 -29 10 -58
10 -167 0 -210 -1 -287 -8 l-85 -7 140 -18 c156 -19 270 -25 649 -33 212 -5
276 -3 355 11 131 22 161 38 177 95 7 24 12 45 11 46 -1 1 -14 -4 -28 -12z"/>
<path d="M4638 5363 c18 -2 45 -2 60 0 15 2 0 4 -33 4 -33 0 -45 -2 -27 -4z"/>
<path d="M10145 4979 c193 -11 482 -32 785 -58 276 -24 522 -38 875 -51 627
-23 760 -3 305 44 -377 40 -665 50 -1875 70 -236 4 -241 4 -90 -5z"/>
<path d="M3628 4795 l-25 -105 194 0 193 0 -5 -22 c-25 -106 -205 -971 -205
-985 0 -2 63 -3 140 -3 l139 0 10 38 c5 20 15 64 21 97 6 33 40 191 75 350 35
160 74 342 87 405 l24 115 190 3 190 2 29 93 c17 50 31 98 33 105 3 9 -108 12
-530 12 l-534 0 -26 -105z"/>
<path d="M6189 4843 c-13 -36 -39 -143 -39 -165 0 -16 13 -18 134 -18 l134 0
21 87 c29 123 29 123 -120 123 l-119 0 -11 -27z"/>
<path d="M4953 4516 c-58 -19 -107 -50 -142 -94 -34 -41 -37 -34 -22 46 l8 42
-126 0 -127 0 -13 -62 c-7 -35 -46 -220 -87 -412 -41 -192 -74 -351 -74 -353
0 -1 61 -3 135 -3 131 0 135 1 140 23 3 12 23 110 45 217 48 237 55 259 92
305 44 53 100 78 190 83 l76 4 25 101 c14 56 23 105 21 109 -8 12 -94 8 -141
-6z"/>
<path d="M5398 4515 c-131 -26 -213 -81 -254 -170 -13 -27 -24 -56 -24 -62 0
-10 30 -13 119 -13 l119 0 21 35 c12 21 36 42 56 50 73 31 179 9 191 -39 10
-40 -4 -95 -29 -111 -12 -7 -80 -21 -152 -29 -203 -24 -294 -54 -363 -120 -51
-48 -75 -101 -79 -181 -3 -59 0 -76 19 -110 45 -76 124 -109 248 -103 89 4
175 39 233 96 l37 36 0 -57 0 -57 135 0 135 0 -7 28 c-16 55 -5 152 41 353 47
210 54 276 35 326 -23 61 -97 111 -197 132 -69 14 -200 13 -284 -4z m177 -510
c-18 -77 -43 -115 -100 -150 -60 -37 -149 -43 -184 -11 -31 28 -29 95 4 135
30 35 67 48 178 66 126 20 116 24 102 -40z"/>
<path d="M6986 4514 c-54 -17 -107 -48 -149 -88 -33 -31 -40 -32 -34 -8 3 9 8
34 12 55 l6 37 -129 0 -129 0 -47 -222 c-26 -123 -65 -306 -87 -407 -21 -102
-39 -188 -39 -193 0 -5 60 -7 132 -6 l132 3 58 269 c45 210 63 276 82 305 83
119 276 111 276 -12 0 -33 -50 -284 -95 -474 -24 -101 -33 -94 118 -91 l132 3
21 100 c12 55 40 187 63 293 22 106 41 217 41 246 0 73 -33 132 -93 170 -40
24 -59 29 -134 32 -61 3 -103 -1 -137 -12z"/>
<path d="M6102 4443 c-7 -38 -46 -222 -87 -410 -41 -188 -75 -345 -75 -348 0
-3 60 -5 134 -5 130 0 134 1 139 23 4 12 42 193 87 402 44 209 83 386 85 393
3 9 -27 12 -133 12 l-137 0 -13 -67z"/>
<path d="M7526 4498 c-9 -29 -36 -148 -36 -157 0 -7 75 -12 209 -13 l210 -3
-232 -211 c-128 -117 -245 -223 -261 -236 -23 -19 -34 -42 -47 -99 -10 -41
-18 -80 -19 -86 0 -10 84 -13 389 -13 l389 0 17 73 c9 39 19 80 22 90 4 16
-12 17 -234 17 l-238 1 31 27 c54 47 226 203 371 335 139 127 141 129 152 185
6 31 14 67 17 80 l6 22 -371 0 c-289 0 -372 -3 -375 -12z"/>
</g>
</svg>
